PathFileType	4	(X/Y/Z)	C:\Users\WrightLab\Desktop\Jo\P3_3.trc
DataRate	CameraRate	NumFrames	NumMarkers	Units	OrigDataRate	OrigDataStartFrame	OrigNumFrames
100.00	100.00	       12	19	mm	100.00	183	       729
Frame#	Time	Headset_Front			Headset_Back			Headset_Left			Headset_Right			Left_Shoulder			Right_Shoulder			Sternum			C7			Left Elbow			Right Elbow			Left Wrist			Right Wrist			Left ASIS			Right ASIS			S2			Left Knee			Right Knee			Left Ankle			Right Ankle			
		X1	Y1	Z1	X2	Y2	Z2	X3	Y3	Z3	X4	Y4	Z4	X5	Y5	Z5	X6	Y6	Z6	X7	Y7	Z7	X8	Y8	Z8	X9	Y9	Z9	X10	Y10	Z10	X11	Y11	Z11	X12	Y12	Z12	X13	Y13	Z13	X14	Y14	Z14	X15	Y15	Z15	X16	Y16	Z16	X17	Y17	Z17	X18	Y18	Z18	X19	Y19	Z19	

183	1.820	-93.35655	1454.12439	956.16400	51.85415	1654.88513	1131.03345	-90.12840	1570.60889	1130.80457				-117.50399	1367.80627	1222.67395	218.22528	1375.75916	1102.80859	4.61396	1250.79944	1045.89368	73.03801	1425.02747	1205.89368	-157.73894	1043.17151	1309.95850	319.15195	1038.82849	1102.18970	-216.06769	848.07269	1265.53784	278.71606	855.93982	966.31409	-73.02919	875.62885	1103.17603				102.91233	975.26123	1272.09949	-66.08926	454.04721	1104.97473	183.76958	477.43124	1036.29456	27.80684	265.54480	1364.59619	205.19081	140.93808	1074.97803	
184	1.830	-93.13571	1455.77417	946.72540	50.40375	1655.40308	1124.43787	-91.23932	1571.51257	1122.97217				-118.14122	1368.42273	1215.78723	216.90050	1375.86121	1093.25269	2.92852	1250.37781	1038.67615	71.82141	1425.53699	1196.95935	-154.87453	1043.03357	1304.43176	317.54831	1038.43311	1091.98047	-209.84454	847.12946	1262.47742	275.51556	856.01233	956.88452	-75.22313	876.41779	1097.59180				102.50465	975.57080	1263.53259	-70.88113	456.98254	1088.32898	182.96768	477.58701	1032.82129	28.27184	270.48846	1348.13953	205.09181	141.27228	1074.39465	
185	1.840	-93.26283	1457.19885	938.62152	50.36293	1655.48645	1117.73962	-91.85810	1571.82068	1115.08118				-118.65913	1368.98267	1208.85950	215.60101	1375.73132	1084.06030	0.83397	1250.01294	1031.12012	71.37944	1426.07202	1189.05261	-151.97359	1043.23499	1299.23560	315.62881	1037.86743	1081.13354	-204.01855	845.85474	1258.10742	272.17059	855.74127	946.56403	-77.47167	877.25629	1091.77795				101.73986	976.55908	1256.20691	-75.94601	459.74219	1073.14136	182.83224	477.04132	1029.28955	29.13365	273.84601	1330.85681	205.13934	141.48271	1073.89954	
186	1.850	-93.74622	1459.30762	930.15326	48.17476	1656.05334	1111.22644	-93.35881	1572.40540	1107.33044				-119.42847	1369.33289	1202.01990	214.30952	1376.09863	1074.27991	-1.83715	1249.88904	1023.44470	70.66481	1426.65955	1180.44995	-149.56689	1043.60608	1293.66895	313.66125	1037.79895	1071.06885	-198.72339	844.90680	1253.69067	268.62833	855.53137	936.62512	-80.39123	878.28430	1085.47070				101.27419	976.00818	1249.42139	-81.44945	463.48669	1058.34338	181.91245	476.15598	1026.91577	28.38635	276.24625	1312.92273	204.56578	141.54802	1073.09851	
187	1.860	-93.92926	1460.67749	921.28510	48.14079	1656.14575	1104.54810	-94.22585	1573.01709	1099.37744				-120.34795	1369.87244	1195.41418	212.59085	1375.57959	1065.43213	-3.73131	1249.50928	1016.68475	70.23576	1426.43811	1172.38989	-146.96130	1043.28455	1287.48181	311.35477	1037.45837	1060.43298	-193.74850	844.02393	1248.75830	264.88257	855.70221	926.72723	-82.10108	879.35046	1079.61865				100.05233	977.41974	1242.81482	-86.90067	466.62280	1044.26086	180.77875	475.80972	1023.89178	27.80362	277.06033	1294.34302	204.11211	141.81870	1072.24890	
188	1.870	-94.70432	1462.53784	913.27850	45.93776	1656.68274	1098.05090	-95.92336	1573.78088	1091.64978				-121.40633	1370.25342	1188.69312	210.99379	1375.89490	1056.01733	-6.42131	1249.52258	1009.11359	69.01812	1427.16138	1164.16492	-144.66714	1043.80017	1281.98450	308.48099	1036.61804	1050.07898	-188.96101	843.51477	1243.38696	261.01538	855.83081	917.33887	-83.43378	880.40588	1073.51538				98.11346	978.06586	1235.68750	-91.20879	469.90619	1029.94177	179.11734	475.96048	1020.58380	26.37865	276.44324	1275.22107	203.10536	141.41583	1071.40503	
189	1.880	-95.40913	1464.55554	905.06592	45.82868	1656.59827	1091.27332	-97.74180	1574.53662	1083.82629				-122.51011	1370.92761	1182.02905	208.63464	1376.07874	1047.64941	-8.46778	1249.60461	1002.42914	67.84246	1427.88196	1155.75879	-142.79668	1044.24561	1276.06799	307.13907	1037.22278	1040.58105	-184.97891	843.15155	1237.79407	257.33563	856.20276	907.61835	-84.91221	881.84943	1067.59497				96.95083	978.03003	1229.08057	-97.26748	473.59021	1016.38190	178.28972	475.95920	1016.97229	24.71827	275.17224	1255.89380	202.76837	141.32033	1070.43042	
190	1.890	-96.02835	1465.88208	895.88110	43.62420	1657.09399	1084.92725	-98.47874	1574.64832	1075.81897				-123.58342	1371.62439	1176.08752	207.01550	1376.23230	1038.26953	-10.59584	1249.78503	995.38995	66.56927	1428.30103	1147.57312	-141.77156	1044.84595	1270.50488	304.03726	1036.98108	1030.77856	-181.37151	843.01703	1231.73572	253.43983	856.27179	898.17712	-86.92649	883.55072	1061.81396				94.87504	979.11188	1221.89648	-102.52477	477.37094	1003.13977	176.68738	474.90231	1014.40930	22.34866	271.99966	1235.97754	202.18176	141.31697	1069.90320	
191	1.900	-97.30561	1467.43103	887.91229	41.57409	1657.29675	1078.62207	-100.95751	1575.29187	1068.19836				-124.88156	1372.47363	1169.13391	205.09830	1376.69653	1029.45398	-13.55581	1249.70081	988.51917	65.41044	1428.70117	1140.24048	-140.99992	1045.32910	1264.06543	301.68942	1036.74622	1021.76074	-178.39845	843.13837	1225.36902	249.28975	856.84894	889.33258	-88.75361	885.00110	1055.62341				93.55624	979.84692	1215.76782	-107.96622	481.20847	990.87744	175.39145	474.85120	1011.86456	20.05546	269.38870	1216.54785	201.33205	141.48421	1069.08313	
192	1.910	-97.64578	1468.72192	879.51898	40.14147	1657.24829	1072.20544	-102.56169	1575.61316	1060.38379				-126.39052	1373.27893	1162.41748	202.63132	1376.86890	1020.55176	-15.49086	1249.85962	981.76978	63.82100	1429.10608	1131.50244	-140.54561	1045.91211	1257.66187	298.36154	1037.11365	1012.26941	-175.87553	842.95160	1218.75635	245.28194	856.97900	879.72345	-90.35468	886.23639	1049.53906				91.68714	980.07117	1207.63721	-113.46854	484.07861	978.36169	174.36502	474.44095	1008.84833	17.16415	264.39713	1196.22400	200.05656	141.35313	1068.55945	
193	1.920	-98.96285	1470.64771	871.04333	37.75080	1657.49011	1065.90186	-104.71214	1575.93689	1052.82642				-127.43441	1373.94519	1155.93115	200.67899	1377.03320	1012.08734	-18.42840	1250.35400	974.86670	62.66682	1429.38013	1124.10522	-140.07137	1046.49414	1251.60547	295.74896	1036.92505	1002.59229	-174.35121	843.14362	1212.04590	241.84343	857.46643	870.38025	-92.82970	887.37585	1043.88232				90.16343	981.02350	1201.83350	-118.69205	487.43500	967.16669	172.57813	473.82312	1005.54962	11.91217	259.98456	1176.65063	199.36249	141.61482	1067.70569	
194	1.930	-100.02518	1471.61853	862.86176	36.23894	1657.14355	1059.52161	-106.09573	1576.06580	1045.08716				-129.23892	1374.80725	1149.94373	198.45142	1376.94922	1003.79028	-21.20601	1250.40076	968.31097	61.04565	1429.29456	1116.40076	-140.61264	1047.33423	1245.56750	292.61050	1037.24097	993.93945	-173.59198	843.47980	1205.07593	236.94839	857.56134	861.53674	-94.22289	888.04755	1037.60742				89.16273	980.89948	1194.99707	-124.27449	490.15314	955.66302	170.97858	473.51154	1003.21844	7.86956	253.06381	1154.95105	198.66249	141.94508	1067.25293	
